<svg width="50" height="50" viewBox="0 0 50 50" fill="none" xmlns="http://www.w3.org/2000/svg">
<path d="M46.4437 32.7229L41.6771 27.9562L44.6229 25.0104L49.3896 29.7771L46.4437 32.7229ZM49.3896 11.8896L46.4437 8.94375L41.7562 13.6312L44.7021 16.5771L49.3896 11.8896ZM50 18.75H43.75V22.9167H50V18.75ZM17.4375 35.4167H5.70625L12.1875 50H15.1042C16.0588 49.9995 16.9982 49.7606 17.8371 49.305C18.676 48.8494 19.3879 48.1915 19.9081 47.3911C20.4283 46.5907 20.7405 45.673 20.8162 44.7214C20.8919 43.7698 20.7288 42.8143 20.3417 41.9417L17.4375 35.4167ZM37.5 0V41.6667H33.3333C33.33 38.905 32.2315 36.2574 30.2787 34.3046C28.3259 32.3518 25.6783 31.2533 22.9167 31.25H6.25C4.5924 31.25 3.00268 30.5915 1.83058 29.4194C0.65848 28.2473 0 26.6576 0 25L0 16.6667C0 15.0091 0.65848 13.4194 1.83058 12.2472C3.00268 11.0751 4.5924 10.4167 6.25 10.4167H22.9167C25.6783 10.4134 28.3259 9.31483 30.2787 7.36204C32.2315 5.40925 33.33 2.76166 33.3333 0L37.5 0Z" fill="#421983"/>
</svg>
