<svg width="27" height="20" viewBox="0 0 27 20" fill="none" xmlns="http://www.w3.org/2000/svg">
<path d="M21.4545 4.375H16.9091M10.0909 4.375H5.54545M3.27273 6.625C3.87549 6.625 4.45357 6.38795 4.87979 5.96599C5.30601 5.54403 5.54545 4.97174 5.54545 4.375C5.54545 3.77826 5.30601 3.20597 4.87979 2.78401C4.45357 2.36205 3.87549 2.125 3.27273 2.125C2.66996 2.125 2.09189 2.36205 1.66567 2.78401C1.23945 3.20597 1 3.77826 1 4.375C1 4.97174 1.23945 5.54403 1.66567 5.96599C2.09189 6.38795 2.66996 6.625 3.27273 6.625V6.625ZM23.7273 6.625C24.33 6.625 24.9081 6.38795 25.3343 5.96599C25.7606 5.54403 26 4.97174 26 4.375C26 3.77826 25.7606 3.20597 25.3343 2.78401C24.9081 2.36205 24.33 2.125 23.7273 2.125C23.1245 2.125 22.5464 2.36205 22.1202 2.78401C21.694 3.20597 21.4545 3.77826 21.4545 4.375C21.4545 4.97174 21.694 5.54403 22.1202 5.96599C22.5464 6.38795 23.1245 6.625 23.7273 6.625V6.625ZM8.38636 15.0625V17.3125C8.38636 17.9988 7.96591 18.595 7.375 18.8425C7.15891 18.9461 6.92192 19 6.68182 19H4.40909C3.46591 19 2.70455 18.2462 2.70455 17.3125V15.0625C2.70455 14.1288 3.46591 13.375 4.40909 13.375H6.68182C7.625 13.375 8.38636 14.1288 8.38636 15.0625ZM24.2955 15.0625V17.3125C24.2955 18.2462 23.5341 19 22.5909 19H20.3182C20.0781 19 19.8411 18.9461 19.625 18.8425C19.0341 18.595 18.6136 17.9988 18.6136 17.3125V15.0625C18.6136 14.1288 19.375 13.375 20.3182 13.375H22.5909C23.5341 13.375 24.2955 14.1288 24.2955 15.0625ZM16.9091 2.6875V6.0625C16.9091 6.985 16.1364 7.75 15.2045 7.75H11.7955C10.8636 7.75 10.0909 6.985 10.0909 6.0625V2.6875C10.0909 1.765 10.8636 1 11.7955 1H15.2045C16.1364 1 16.9091 1.765 16.9091 2.6875Z" stroke="white" stroke-opacity="0.6" stroke-width="1.5" stroke-miterlimit="10" stroke-linecap="round" stroke-linejoin="round"/>
<path d="M16.9091 5.19626C19.6023 6.54626 21.4545 9.44876 21.4545 12.8125C21.4545 13.0038 21.4432 13.1838 21.4205 13.375M5.57955 13.375C5.55682 13.1838 5.54545 13.0038 5.54545 12.8125C5.54545 9.44876 7.39773 6.54626 10.0909 5.19626" stroke="white" stroke-opacity="0.6" stroke-width="1.5" stroke-miterlimit="10" stroke-linecap="round" stroke-linejoin="round"/>
</svg>
