<svg width="50" height="50" viewBox="0 0 50 50" fill="none" xmlns="http://www.w3.org/2000/svg">
<circle cx="25" cy="25" r="25" fill="#252A34"/>
<path d="M37.3125 31.6667C37.3125 32.1087 37.1347 32.5326 36.8182 32.8452C36.5018 33.1577 36.0726 33.3333 35.625 33.3333H15.375C14.9274 33.3333 14.4982 33.1577 14.1818 32.8452C13.8653 32.5326 13.6875 32.1087 13.6875 31.6667V21.6667C13.6875 21.2246 13.8653 20.8007 14.1818 20.4882C14.4982 20.1756 14.9274 20 15.375 20H17.3527C18.6947 19.9993 19.9815 19.4723 20.9303 18.535L22.3309 17.155C22.6464 16.8432 23.0742 16.6676 23.5206 16.6667H27.4761C27.9236 16.6668 28.3527 16.8424 28.6691 17.155L30.0664 18.535C30.5366 18.9995 31.0948 19.368 31.7092 19.6194C32.3237 19.8707 32.9822 20.0001 33.6472 20H35.625C36.0726 20 36.5018 20.1756 36.8182 20.4882C37.1347 20.8007 37.3125 21.2246 37.3125 21.6667V31.6667ZM15.375 18.3333C14.4799 18.3333 13.6214 18.6845 12.9885 19.3096C12.3556 19.9348 12 20.7826 12 21.6667V31.6667C12 32.5507 12.3556 33.3986 12.9885 34.0237C13.6214 34.6488 14.4799 35 15.375 35H35.625C36.5201 35 37.3785 34.6488 38.0115 34.0237C38.6444 33.3986 39 32.5507 39 31.6667V21.6667C39 20.7826 38.6444 19.9348 38.0115 19.3096C37.3785 18.6845 36.5201 18.3333 35.625 18.3333H33.6472C32.7522 18.3331 31.8939 17.9818 31.2611 17.3567L29.8639 15.9767C29.2311 15.3515 28.3728 15.0002 27.4777 15H23.5223C22.6272 15.0002 21.7689 15.3515 21.1361 15.9767L19.7389 17.3567C19.1061 17.9818 18.2478 18.3331 17.3527 18.3333H15.375Z" fill="white" fill-opacity="0.7"/>
<path d="M25.5007 30C24.3819 30 23.3088 29.561 22.5176 28.7796C21.7265 27.9982 21.282 26.9384 21.282 25.8333C21.282 24.7283 21.7265 23.6685 22.5176 22.8871C23.3088 22.1057 24.3819 21.6667 25.5007 21.6667C26.6196 21.6667 27.6927 22.1057 28.4838 22.8871C29.275 23.6685 29.7195 24.7283 29.7195 25.8333C29.7195 26.9384 29.275 27.9982 28.4838 28.7796C27.6927 29.561 26.6196 30 25.5007 30ZM25.5007 31.6667C27.0672 31.6667 28.5694 31.0521 29.6771 29.9581C30.7847 28.8642 31.407 27.3804 31.407 25.8333C31.407 24.2862 30.7847 22.8025 29.6771 21.7085C28.5694 20.6146 27.0672 20 25.5007 20C23.9343 20 22.432 20.6146 21.3244 21.7085C20.2167 22.8025 19.5945 24.2862 19.5945 25.8333C19.5945 27.3804 20.2167 28.8642 21.3244 29.9581C22.432 31.0521 23.9343 31.6667 25.5007 31.6667ZM17.0632 22.5C17.0632 22.721 16.9743 22.933 16.8161 23.0893C16.6579 23.2455 16.4433 23.3333 16.2195 23.3333C15.9957 23.3333 15.7811 23.2455 15.6229 23.0893C15.4646 22.933 15.3757 22.721 15.3757 22.5C15.3757 22.279 15.4646 22.067 15.6229 21.9107C15.7811 21.7545 15.9957 21.6667 16.2195 21.6667C16.4433 21.6667 16.6579 21.7545 16.8161 21.9107C16.9743 22.067 17.0632 22.279 17.0632 22.5Z" fill="white" fill-opacity="0.7"/>
</svg>
