<svg width="24" height="24" viewBox="0 0 24 24" fill="none" xmlns="http://www.w3.org/2000/svg">
<path d="M12 17.1427C10.9829 17.1427 9.98856 16.8411 9.14282 16.276C8.29708 15.7109 7.63791 14.9077 7.24866 13.9679C6.85941 13.0282 6.75756 11.9941 6.956 10.9965C7.15444 9.99891 7.64425 9.08255 8.36349 8.3633C9.08273 7.64406 9.9991 7.15425 10.9967 6.95582C11.9943 6.75738 13.0284 6.85922 13.9681 7.24847C14.9079 7.63772 15.7111 8.2969 16.2762 9.14263C16.8413 9.98837 17.1429 10.9827 17.1429 11.9999C17.1413 13.3633 16.599 14.6705 15.6348 15.6346C14.6707 16.5988 13.3635 17.1411 12 17.1427ZM12 8.57128C11.3219 8.57128 10.659 8.77236 10.0952 9.1491C9.5314 9.52584 9.09195 10.0613 8.83245 10.6878C8.57295 11.3143 8.50505 12.0037 8.63734 12.6687C8.76964 13.3338 9.09618 13.9447 9.57567 14.4242C10.0552 14.9037 10.6661 15.2303 11.3312 15.3625C11.9962 15.4948 12.6856 15.4269 13.3121 15.1674C13.9386 14.9079 14.4741 14.4685 14.8508 13.9047C15.2275 13.3408 15.4286 12.678 15.4286 11.9999C15.4275 11.0909 15.0659 10.2195 14.4231 9.57674C13.7804 8.934 12.909 8.57242 12 8.57128Z" fill="white"/>
<path d="M12 20.5715C10.7942 20.5706 9.60222 20.3158 8.50154 19.8235C7.40086 19.3313 6.4162 18.6127 5.61169 17.7146L6.88884 16.5712C7.65135 17.4238 8.61503 18.0721 9.69213 18.4571C10.7692 18.8421 11.9255 18.9516 13.0557 18.7755C14.1859 18.5994 15.2541 18.1434 16.163 17.449C17.072 16.7545 17.7927 15.8438 18.2597 14.7996C18.7267 13.7554 18.9251 12.611 18.8368 11.4706C18.7485 10.3302 18.3763 9.22999 17.7541 8.27017C17.1319 7.31036 16.2795 6.52143 15.2745 5.97523C14.2695 5.42903 13.1438 5.14291 12 5.14294V3.42865C14.2733 3.42865 16.4534 4.33171 18.0609 5.93916C19.6683 7.54662 20.5714 9.72679 20.5714 12.0001C20.5714 14.2734 19.6683 16.4535 18.0609 18.061C16.4534 19.6684 14.2733 20.5715 12 20.5715Z" fill="white"/>
<path d="M12 24C9.62663 24 7.30655 23.2962 5.33316 21.9776C3.35977 20.6591 1.8217 18.7849 0.913451 16.5922C0.0051994 14.3995 -0.232441 11.9867 0.230582 9.65892C0.693605 7.33115 1.83649 5.19295 3.51472 3.51472C5.19295 1.83649 7.33115 0.693605 9.65892 0.230582C11.9867 -0.232441 14.3995 0.0051994 16.5922 0.913451C18.7849 1.8217 20.6591 3.35977 21.9776 5.33316C23.2962 7.30655 24 9.62663 24 12C23.9964 15.1815 22.7309 18.2316 20.4813 20.4813C18.2316 22.7309 15.1815 23.9964 12 24ZM12 1.71429C9.96568 1.71429 7.97704 2.31754 6.28557 3.44775C4.59409 4.57795 3.27575 6.18436 2.49724 8.06383C1.71874 9.9433 1.51505 12.0114 1.91193 14.0066C2.3088 16.0019 3.28842 17.8346 4.72691 19.2731C6.16539 20.7116 7.99813 21.6912 9.99336 22.0881C11.9886 22.485 14.0567 22.2813 15.9362 21.5028C17.8156 20.7243 19.4221 19.4059 20.5523 17.7144C21.6825 16.023 22.2857 14.0343 22.2857 12C22.2825 9.27304 21.1978 6.65867 19.2696 4.73041C17.3413 2.80216 14.727 1.71747 12 1.71429Z" fill="white"/>
</svg>
