<svg width="24" height="24" viewBox="0 0 24 24" fill="none" xmlns="http://www.w3.org/2000/svg">
<path d="M14.75 1.33C13.65 1.33 12.66 2.21 12.66 3.42V8.48C12.66 9.58 13.54 10.57 14.75 10.57C15.85 10.57 16.84 9.69 16.84 8.48V3.31C16.84 2.21 15.96 1.33 14.75 1.33V1.33ZM19.26 10.46H21.02C22.01 10.46 22.78 9.69 22.78 8.7C22.78 7.71 22.01 6.94 21.02 6.94C20.03 6.94 19.26 7.71 19.26 8.7V10.46ZM1 8.92C1 10.02 1.88 11.01 3.09 11.01H8.15C9.25 11.01 10.24 10.13 10.24 8.92C10.24 7.82 9.36 6.83 8.15 6.83H3.09C1.88 6.94 1 7.82 1 8.92ZM10.24 4.41V2.76C10.24 1.77 9.47 1 8.48 1C7.49 1 6.72 1.77 6.72 2.76C6.72 3.75 7.49 4.52 8.48 4.52H10.24V4.41V4.41ZM9.14 22.78C10.24 22.78 11.23 21.9 11.23 20.69V15.63C11.23 14.53 10.35 13.54 9.14 13.54C8.04 13.54 7.05 14.42 7.05 15.63V20.69C7.16 21.79 8.04 22.78 9.14 22.78ZM4.74 13.54H2.98C1.99 13.54 1.22 14.31 1.22 15.3C1.22 16.29 1.99 17.06 2.98 17.06C3.97 17.06 4.74 16.29 4.74 15.3V13.54V13.54ZM23 15.08C23 13.98 22.12 12.99 20.91 12.99H15.85C14.75 12.99 13.76 13.87 13.76 15.08C13.76 16.18 14.64 17.17 15.85 17.17H20.91C22.01 17.17 23 16.18 23 15.08V15.08ZM13.76 19.48V21.24C13.76 22.23 14.53 23 15.52 23C16.51 23 17.28 22.23 17.28 21.24C17.28 20.25 16.51 19.48 15.52 19.48H13.76V19.48Z" stroke="white" stroke-width="1.5" stroke-miterlimit="10" stroke-linecap="round" stroke-linejoin="round"/>
</svg>
