<svg width="36" height="36" viewBox="0 0 36 36" fill="none" xmlns="http://www.w3.org/2000/svg">
<rect width="36" height="36" rx="6" fill="#D7950D"/>
<path d="M29.0001 27.9L26.8001 25.7C27.193 25.0714 27.4287 24.2857 27.4287 23.5C27.4287 21.3 25.7001 19.5714 23.5001 19.5714C21.3001 19.5714 19.5715 21.3 19.5715 23.5C19.5715 25.7 21.3001 27.4286 23.5001 27.4286C24.2858 27.4286 25.0715 27.1929 25.7001 26.8L27.9001 29L29.0001 27.9ZM21.143 23.5C21.143 22.1643 22.1644 21.1429 23.5001 21.1429C24.8358 21.1429 25.8572 22.1643 25.8572 23.5C25.8572 24.8357 24.8358 25.8572 23.5001 25.8572C22.1644 25.8572 21.143 24.8357 21.143 23.5ZM11.7144 18H19.5715V19.5714H11.7144V18ZM11.7144 13.2857H21.143V14.8572H11.7144V13.2857Z" fill="white"/>
<path d="M16.4286 27.1929L12.3429 24.9929C9.98571 23.8143 8.57143 21.3786 8.57143 18.7857V8.57143H24.2857V17.2143H25.8571V8.57143C25.8571 7.70714 25.15 7 24.2857 7H8.57143C7.70714 7 7 7.70714 7 8.57143V18.7857C7 22.0071 8.72857 24.9143 11.5571 26.4071L16.4286 29V27.1929Z" fill="white"/>
</svg>
