<svg width="36" height="36" viewBox="0 0 36 36" fill="none" xmlns="http://www.w3.org/2000/svg">
<rect width="36" height="36" rx="6" fill="#F89194"/>
<path d="M22.1 24.6C21.495 24.6 20.9769 24.3848 20.5457 23.9543C20.1152 23.5231 19.9 23.005 19.9 22.4C19.9 21.795 20.1152 21.2769 20.5457 20.8457C20.9769 20.4152 21.495 20.2 22.1 20.2C22.705 20.2 23.2231 20.4152 23.6543 20.8457C24.0848 21.2769 24.3 21.795 24.3 22.4C24.3 23.005 24.0848 23.5231 23.6543 23.9543C23.2231 24.3848 22.705 24.6 22.1 24.6ZM17.7 29V28.3675C17.7 27.5608 18.1033 26.9148 18.91 26.4293C19.7167 25.9431 20.78 25.7 22.1 25.7C23.42 25.7 24.4833 25.9431 25.29 26.4293C26.0967 26.9148 26.5 27.5608 26.5 28.3675V29H17.7ZM21 18H18.8V12.5C18.8 11.565 18.47 10.7811 17.81 10.1482C17.15 9.51607 16.38 9.2 15.5 9.2C14.62 9.2 13.85 9.51607 13.19 10.1482C12.53 10.7811 12.2 11.565 12.2 12.5V23.5C12.2 24.38 12.53 25.15 13.19 25.81C13.85 26.47 14.62 26.8 15.5 26.8V29C13.9417 29 12.6356 28.4727 11.5818 27.4182C10.5273 26.3644 10 25.0583 10 23.5V12.5C10 10.9417 10.5273 9.6356 11.5818 8.5818C12.6356 7.52727 13.9417 7 15.5 7C17.0583 7 18.3644 7.52727 19.4182 8.5818C20.4727 9.6356 21 10.9417 21 12.5V18ZM15.5 15.8C16.105 15.8 16.6231 15.5844 17.0543 15.1532C17.4848 14.7227 17.7 14.205 17.7 13.6C17.7 12.995 17.4848 12.4773 17.0543 12.0468C16.6231 11.6156 16.105 11.4 15.5 11.4C14.895 11.4 14.3773 11.6156 13.9468 12.0468C13.5156 12.4773 13.3 12.995 13.3 13.6C13.3 14.205 13.5156 14.7227 13.9468 15.1532C14.3773 15.5844 14.895 15.8 15.5 15.8ZM13.3 22.4C13.3 23.005 13.5156 23.5231 13.9468 23.9543C14.3773 24.3848 14.895 24.6 15.5 24.6C16.105 24.6 16.6231 24.3848 17.0543 23.9543C17.4848 23.5231 17.7 23.005 17.7 22.4C17.7 21.795 17.4848 21.2769 17.0543 20.8457C16.6231 20.4152 16.105 20.2 15.5 20.2C14.895 20.2 14.3773 20.4152 13.9468 20.8457C13.5156 21.2769 13.3 21.795 13.3 22.4ZM15.5 23.5C15.17 23.5 14.9042 23.3856 14.7025 23.1568C14.5008 22.9273 14.4 22.675 14.4 22.4C14.4 22.125 14.5008 21.8727 14.7025 21.6432C14.9042 21.4144 15.17 21.3 15.5 21.3C15.83 21.3 16.0958 21.4008 16.2975 21.6025C16.4992 21.8042 16.6 22.07 16.6 22.4C16.6 22.675 16.4992 22.9273 16.2975 23.1568C16.0958 23.3856 15.83 23.5 15.5 23.5Z" fill="white"/>
</svg>
