<svg width="22" height="24" viewBox="0 0 22 24" fill="none" xmlns="http://www.w3.org/2000/svg">
<path d="M6.55554 12.22H14.3333M6.55554 16.62H11.4222M8.77776 5.4H13.2222C15.4444 5.4 15.4444 4.3 15.4444 3.2C15.4444 1 14.3333 1 13.2222 1H8.77776C7.66665 1 6.55554 1 6.55554 3.2C6.55554 5.4 7.66665 5.4 8.77776 5.4Z" stroke="white" stroke-width="1.5" stroke-miterlimit="10" stroke-linecap="round" stroke-linejoin="round"/>
<path d="M15.4444 3.22205C19.1444 3.42005 21 4.77304 21 9.80004V16.4C21 20.8 19.8889 23 14.3333 23H7.66667C2.11111 23 1 20.8 1 16.4V9.80004C1 4.78404 2.85556 3.42005 6.55556 3.22205" stroke="white" stroke-width="1.5" stroke-miterlimit="10" stroke-linecap="round" stroke-linejoin="round"/>
</svg>
