<svg width="20" height="22" viewBox="0 0 20 22" fill="none" xmlns="http://www.w3.org/2000/svg">
<path d="M16.9229 14.1429H12.3076V12.5715H16.9229V14.1429ZM19.9998 20.4286H15.3845V18.8572H19.9998V20.4286ZM18.4614 17.2858H13.8461V15.7143H18.4614V17.2858Z" fill="white"/>
<path d="M10.0025 14.1429C9.99704 13.4799 9.82393 12.8296 9.49992 12.2551C9.17591 11.6806 8.71202 11.2014 8.15326 10.8641L13.8463 0.785714L12.5155 0L6.68712 10.3133C5.97183 10.1501 5.22788 10.1726 4.52333 10.3789C3.81877 10.5852 3.17611 10.9687 2.6541 11.4942C-0.225856 14.3314 -0.00278163 20.9644 0.00798745 21.2457C0.015939 21.4486 0.100479 21.6405 0.243882 21.7811C0.387286 21.9217 0.578418 22.0002 0.777207 22H12.3086C12.47 22 12.6274 21.9481 12.7584 21.8517C12.8893 21.7553 12.9873 21.6192 13.0383 21.4627C13.0894 21.3063 13.091 21.1374 13.0428 20.98C12.9947 20.8226 12.8993 20.6847 12.7701 20.5857C10.0471 18.4989 10.0025 14.1853 10.0025 14.1429ZM6.10021 11.7834C6.71587 11.7903 7.30522 12.0394 7.74564 12.4788C8.18607 12.9183 8.44364 13.5143 8.46479 14.1429C8.46479 14.1727 8.46633 14.3063 8.47787 14.5114L3.93947 12.4496C4.23842 12.1978 4.5834 12.0093 4.95434 11.8949C5.32528 11.7805 5.71479 11.7426 6.10021 11.7834ZM8.80786 20.4286C8.19302 19.7891 7.8011 18.9608 7.69249 18.0714H6.15405C6.20915 18.9076 6.46487 19.7172 6.89866 20.4286H5.18868C4.87234 19.4089 4.67988 18.3534 4.61561 17.2857H3.07717C3.12678 18.3502 3.29846 19.405 3.58871 20.4286H1.53873C1.56258 18.986 1.76181 15.7991 2.92564 13.7084L8.72017 16.3405C8.99858 17.8171 9.59213 19.2129 10.4586 20.4286H8.80786Z" fill="white"/>
</svg>
