<svg width="23" height="24" viewBox="0 0 23 24" fill="none" xmlns="http://www.w3.org/2000/svg">
<path d="M6.25 1V4.14286M14.65 1V4.14286M5.2 10.4286H11.5M5.2 15.6667H7.951M19.9 7.80952V13.1838C18.9305 12.4135 17.7268 11.996 16.4875 12C15.196 12 13.9885 12.4505 13.0435 13.2152C12.3958 13.7263 11.8729 14.3776 11.5146 15.1199C11.1562 15.8622 10.9717 16.6761 10.975 17.5C10.975 18.5267 11.269 19.5114 11.773 20.3286C12.1615 20.9676 12.6655 21.5229 13.264 21.9524H6.25C2.575 21.9524 1 19.8571 1 16.7143V7.80952C1 4.66667 2.575 2.57143 6.25 2.57143H14.65C18.325 2.57143 19.9 4.66667 19.9 7.80952Z" stroke="white" stroke-width="1.5" stroke-miterlimit="10" stroke-linecap="round" stroke-linejoin="round"/>
<path d="M22 17.5C22 18.5267 21.706 19.5114 21.202 20.3286C20.908 20.8314 20.5405 21.2714 20.11 21.6276C19.144 22.4867 17.884 23 16.4875 23C15.28 23 14.167 22.6124 13.264 21.9524C12.6655 21.5229 12.1615 20.9676 11.773 20.3286C11.269 19.5114 10.975 18.5267 10.975 17.5C10.975 15.7714 11.773 14.2105 13.0435 13.2152C13.9885 12.4505 15.196 12 16.4875 12C17.779 12 18.9655 12.44 19.9 13.1838C21.181 14.1895 22 15.7505 22 17.5V17.5Z" stroke="white" stroke-width="1.5" stroke-miterlimit="10" stroke-linecap="round" stroke-linejoin="round"/>
<path d="M16.4875 20.1191C16.4875 19.4245 16.7641 18.7583 17.2564 18.2671C17.7487 17.776 18.4164 17.5 19.1125 17.5C18.4164 17.5 17.7487 17.2241 17.2564 16.7329C16.7641 16.2418 16.4875 15.5756 16.4875 14.881C16.4875 15.5756 16.211 16.2418 15.7187 16.7329C15.2264 17.2241 14.5587 17.5 13.8625 17.5C14.5587 17.5 15.2264 17.776 15.7187 18.2671C16.211 18.7583 16.4875 19.4245 16.4875 20.1191Z" stroke="white" stroke-width="1.5" stroke-linecap="round" stroke-linejoin="round"/>
</svg>
