<svg width="15" height="24" viewBox="0 0 15 24" fill="none" xmlns="http://www.w3.org/2000/svg">
<path d="M7.19986 16.0258L6.49518 15.7691L7.19986 13.835L7.90454 15.7691L7.19986 16.0258ZM7.19986 16.0258L7.90457 15.7691L7.90464 15.7693L7.90492 15.7701L7.90599 15.773L7.9102 15.7846L7.92656 15.8296L7.989 16.0016C8.04302 16.1507 8.12076 16.3656 8.21575 16.6294C8.40569 17.157 8.66472 17.8804 8.94101 18.6637C9.4833 20.2012 10.1019 21.9968 10.3885 22.9829C10.4278 23.0713 10.4947 23.1449 10.5794 23.1925C10.6712 23.2439 10.778 23.2616 10.8814 23.2425C10.9849 23.2233 11.0783 23.1686 11.1455 23.0877C11.2106 23.0095 11.2471 22.9116 11.2493 22.8101C11.2005 21.5194 10.8545 19.82 10.4747 17.9542C10.3779 17.4787 10.2789 16.9925 10.1821 16.4994C9.71974 14.1452 9.30453 11.6222 9.61289 9.72371L9.8683 8.15118L10.9176 9.34999C12.0273 10.6179 12.5684 12.128 13.1397 13.7226C13.1814 13.8387 13.2232 13.9554 13.2654 14.0724L13.2654 14.0725C13.3122 14.2024 13.3718 14.2435 13.4015 14.2587C13.44 14.2784 13.49 14.285 13.5411 14.2723C13.5928 14.2594 13.621 14.2333 13.6324 14.2162L13.6326 14.2159C13.6376 14.2083 13.6638 14.169 13.6399 14.0584C13.4093 12.9956 13.0976 11.6163 12.7006 10.3284C12.2945 9.01109 11.8313 7.90181 11.3415 7.30155L11.3415 7.30153C10.9209 6.78591 10.2472 6.4734 9.44468 6.29945C8.64938 6.12707 7.82485 6.11114 7.19986 6.11114C6.57487 6.11114 5.75034 6.12707 4.95504 6.29945C4.15249 6.4734 3.47887 6.78591 3.0582 7.30153L3.05818 7.30155C2.56842 7.90181 2.10527 9.01109 1.69917 10.3284C1.30213 11.6163 0.990398 12.9956 0.759871 14.0584L7.19986 16.0258ZM7.19986 16.0258L6.49515 15.7691L6.49508 15.7693L6.4948 15.7701L6.49373 15.773L6.48952 15.7846L6.47316 15.8296L6.41072 16.0016C6.3567 16.1507 6.27896 16.3656 6.18398 16.6294C5.99404 17.157 5.735 17.8804 5.45871 18.6637C4.91643 20.2012 4.29783 21.9968 4.01126 22.9829C3.97194 23.0713 3.90504 23.1449 3.82028 23.1925C3.72855 23.2439 3.6217 23.2616 3.51828 23.2425C3.41487 23.2233 3.32143 23.1686 3.2542 23.0877C3.18917 23.0095 3.15264 22.9116 3.15039 22.8101C3.19923 21.5195 3.54515 19.8202 3.92493 17.9545C4.02175 17.4789 4.12077 16.9925 4.21763 16.4993C4.67999 14.1448 5.09518 11.6216 4.78684 9.72255L4.53149 8.1499M7.19986 16.0258L4.53149 8.1499M4.53149 8.1499L3.48217 9.34879M4.53149 8.1499L3.48217 9.34879M3.48217 9.34879C2.37246 10.6167 1.83134 12.1268 1.25999 13.7213C1.21839 13.8374 1.17663 13.954 1.13448 14.0709M3.48217 9.34879L1.13448 14.0709M1.13448 14.0709C1.08734 14.2015 1.02729 14.243 0.997395 14.2583M1.13448 14.0709L0.997395 14.2583M0.997395 14.2583C0.958702 14.2782 0.908752 14.2847 0.857994 14.2721M0.997395 14.2583L0.857994 14.2721M0.857994 14.2721C0.806553 14.2593 0.778589 14.2334 0.767315 14.2164M0.857994 14.2721L0.767315 14.2164M0.767315 14.2164L0.767101 14.216M0.767315 14.2164L0.767101 14.216M0.767101 14.216C0.762105 14.2085 0.7359 14.1692 0.759838 14.0586L0.767101 14.216ZM7.83122 3.925C7.63101 4.00799 7.41641 4.05073 7.19967 4.05078C6.76196 4.05089 6.34213 3.87712 6.03255 3.56769C5.72296 3.25826 5.54898 2.83852 5.54887 2.4008C5.54876 1.96309 5.72254 1.54327 6.03197 1.23368C6.3414 0.924094 6.76114 0.750109 7.19885 0.75C7.41558 0.749946 7.6302 0.792581 7.83046 0.875471C8.03071 0.958361 8.21268 1.07988 8.36597 1.2331C8.51926 1.38631 8.64088 1.56822 8.72387 1.76843C8.80686 1.96865 8.8496 2.18325 8.84965 2.39998C8.84971 2.61671 8.80707 2.83133 8.72418 3.03159C8.64129 3.23184 8.51977 3.41381 8.36656 3.5671C8.21334 3.7204 8.03144 3.84201 7.83122 3.925Z" stroke="white" stroke-width="1.5"/>
</svg>
