<svg width="24" height="24" viewBox="0 0 24 24" fill="none" xmlns="http://www.w3.org/2000/svg">
<path d="M14.5454 5.98186C14.3333 6.19825 14.2145 6.48918 14.2145 6.79218C14.2145 7.09518 14.3333 7.38611 14.5454 7.60249L16.3975 9.45464C16.6139 9.66674 16.9048 9.78555 17.2078 9.78555C17.5108 9.78555 17.8017 9.66674 18.0181 9.45464L22.3823 5.09052C22.9643 6.37682 23.1406 7.80997 22.8875 9.19898C22.6344 10.588 21.964 11.8669 20.9657 12.8652C19.9673 13.8636 18.6884 14.534 17.2994 14.787C15.9104 15.0401 14.4773 14.8639 13.191 14.2818L5.19201 22.2808C4.73149 22.7413 4.1069 23 3.45562 23C2.80435 23 2.17975 22.7413 1.71924 22.2808C1.25872 21.8202 1 21.1956 1 20.5444C1 19.8931 1.25872 19.2685 1.71924 18.808L9.7182 10.809C9.13612 9.52272 8.95988 8.08957 9.21296 6.70056C9.46604 5.31155 10.1364 4.03266 11.1348 3.03431C12.1331 2.03596 13.412 1.36558 14.801 1.1125C16.19 0.859419 17.6232 1.03566 18.9095 1.61774L14.5569 5.97029L14.5454 5.98186Z" stroke="white" stroke-width="1.5" stroke-linecap="round" stroke-linejoin="round"/>
</svg>
