<svg width="36" height="36" viewBox="0 0 36 36" fill="none" xmlns="http://www.w3.org/2000/svg">
<rect width="36" height="36" rx="6" fill="#9C66FA"/>
<path d="M18.0001 25.0714C17.0925 25.0722 16.1989 24.8481 15.3991 24.419C14.5993 23.99 13.9184 23.3695 13.417 22.6129L14.726 21.7431C15.0844 22.2835 15.5709 22.7268 16.1422 23.0334C16.7134 23.34 17.3517 23.5005 18.0001 23.5005C18.6485 23.5005 19.2868 23.34 19.8581 23.0334C20.4293 22.7268 20.9158 22.2835 21.2742 21.7431L22.5832 22.6129C22.0819 23.3695 21.4009 23.99 20.6011 24.419C19.8013 24.8481 18.9077 25.0722 18.0001 25.0714ZM21.143 16.4286C20.8322 16.4286 20.5284 16.5207 20.2699 16.6934C20.0115 16.8661 19.8101 17.1115 19.6912 17.3986C19.5722 17.6858 19.5411 18.0017 19.6017 18.3066C19.6624 18.6114 19.812 18.8914 20.0318 19.1112C20.2516 19.3309 20.5316 19.4806 20.8364 19.5412C21.1412 19.6019 21.4572 19.5707 21.7443 19.4518C22.0315 19.3329 22.2769 19.1315 22.4496 18.873C22.6222 18.6146 22.7144 18.3108 22.7144 18C22.7165 17.793 22.6773 17.5878 22.5991 17.3962C22.5208 17.2046 22.4052 17.0305 22.2588 16.8841C22.1125 16.7378 21.9384 16.6221 21.7468 16.5439C21.5552 16.4657 21.3499 16.4265 21.143 16.4286ZM14.8573 16.4286C14.5465 16.4286 14.2426 16.5207 13.9842 16.6934C13.7258 16.8661 13.5244 17.1115 13.4054 17.3986C13.2865 17.6858 13.2554 18.0017 13.316 18.3066C13.3767 18.6114 13.5263 18.8914 13.7461 19.1112C13.9659 19.3309 14.2459 19.4806 14.5507 19.5412C14.8555 19.6019 15.1715 19.5707 15.4586 19.4518C15.7458 19.3329 15.9912 19.1315 16.1639 18.873C16.3365 18.6146 16.4287 18.3108 16.4287 18C16.4308 17.793 16.3916 17.5878 16.3133 17.3962C16.2351 17.2046 16.1194 17.0305 15.9731 16.8841C15.8268 16.7378 15.6527 16.6221 15.4611 16.5439C15.2695 16.4657 15.0642 16.4265 14.8573 16.4286Z" fill="white"/>
<path d="M29 18V16.4286H27.4286V13.2857C27.4275 12.4525 27.0961 11.6537 26.5069 11.0645C25.9177 10.4754 25.1189 10.1439 24.2857 10.1429H22.7143V7H21.1429V10.1429H14.8571V7H13.2857V10.1429H11.7143C10.8811 10.1439 10.0823 10.4754 9.4931 11.0645C8.90392 11.6537 8.57247 12.4525 8.57143 13.2857V16.4286H7V18H8.57143V21.9286H7V23.5H8.57143V25.8571C8.57247 26.6904 8.90392 27.4892 9.4931 28.0783C10.0823 28.6675 10.8811 28.999 11.7143 29H24.2857C25.1189 28.999 25.9177 28.6675 26.5069 28.0783C27.0961 27.4892 27.4275 26.6904 27.4286 25.8571V23.5H29V21.9286H27.4286V18H29ZM25.8571 25.8571C25.8567 26.2738 25.691 26.6732 25.3964 26.9679C25.1018 27.2625 24.7024 27.4282 24.2857 27.4286H11.7143C11.2976 27.4282 10.8982 27.2625 10.6036 26.9679C10.309 26.6732 10.1433 26.2738 10.1429 25.8571V13.2857C10.1433 12.8691 10.309 12.4696 10.6036 12.175C10.8982 11.8804 11.2976 11.7147 11.7143 11.7143H24.2857C24.7024 11.7147 25.1018 11.8804 25.3964 12.175C25.691 12.4696 25.8567 12.8691 25.8571 13.2857V25.8571Z" fill="white"/>
</svg>
