<svg width="36" height="36" viewBox="0 0 36 36" fill="none" xmlns="http://www.w3.org/2000/svg">
<rect width="36" height="36" rx="6" fill="#9F6AFA"/>
<path d="M24.9231 21.1429H20.3077V19.5715H24.9231V21.1429ZM27.9999 27.4286H23.3846V25.8572H27.9999V27.4286ZM26.4615 24.2858H21.8462V22.7143H26.4615V24.2858Z" fill="white"/>
<path d="M18.0025 21.1429C17.997 20.4799 17.8239 19.8296 17.4999 19.2551C17.1759 18.6806 16.712 18.2014 16.1533 17.8641L21.8463 7.78571L20.5155 7L14.6871 17.3133C13.9718 17.1501 13.2279 17.1726 12.5233 17.3789C11.8188 17.5852 11.1761 17.9687 10.6541 18.4942C7.77414 21.3314 7.99722 27.9644 8.00799 28.2457C8.01594 28.4486 8.10048 28.6405 8.24388 28.7811C8.38729 28.9217 8.57842 29.0002 8.77721 29H20.3086C20.47 29 20.6274 28.9481 20.7584 28.8517C20.8893 28.7553 20.9873 28.6192 21.0383 28.4627C21.0894 28.3063 21.091 28.1374 21.0428 27.98C20.9947 27.8226 20.8993 27.6847 20.7701 27.5857C18.0471 25.4989 18.0025 21.1853 18.0025 21.1429ZM14.1002 18.7834C14.7159 18.7903 15.3052 19.0394 15.7456 19.4788C16.1861 19.9183 16.4436 20.5143 16.4648 21.1429C16.4648 21.1727 16.4663 21.3063 16.4779 21.5114L11.9395 19.4496C12.2384 19.1978 12.5834 19.0093 12.9543 18.8949C13.3253 18.7805 13.7148 18.7426 14.1002 18.7834ZM16.8079 27.4286C16.193 26.7891 15.8011 25.9608 15.6925 25.0714H14.1541C14.2091 25.9076 14.4649 26.7172 14.8987 27.4286H13.1887C12.8723 26.4089 12.6799 25.3534 12.6156 24.2857H11.0772C11.1268 25.3502 11.2985 26.405 11.5887 27.4286H9.53873C9.56258 25.986 9.76181 22.7991 10.9256 20.7084L16.7202 23.3405C16.9986 24.8171 17.5921 26.2129 18.4586 27.4286H16.8079Z" fill="white"/>
</svg>
