<svg width="22" height="24" viewBox="0 0 22 24" fill="none" xmlns="http://www.w3.org/2000/svg">
<path d="M20.437 11.6674V6.78102C20.437 2.1585 19.3623 1 15.0404 1H6.39663C2.07475 1 1 2.1585 1 6.78102V19.6966C1 22.7477 2.6693 23.4703 4.69304 21.2909L4.70447 21.2795C5.64202 20.2815 7.07121 20.3618 7.88299 21.4515L9.03778 23M6.1451 6.73514H15.2919M7.28845 11.3233H14.1486" stroke="white" stroke-width="1.5" stroke-linecap="round" stroke-linejoin="round"/>
<path d="M17.8199 15.6476L13.7725 19.7081C13.6124 19.8687 13.4638 20.1669 13.4295 20.3849L13.2122 21.9333C13.1322 22.4954 13.5209 22.8854 14.0812 22.8051L15.6247 22.5871C15.8419 22.5527 16.1506 22.4036 16.2993 22.243L20.3468 18.1826C21.0442 17.4829 21.3758 16.6685 20.3468 15.6362C19.3292 14.6153 18.5174 14.9479 17.8199 15.6476Z" stroke="white" stroke-width="1.5" stroke-miterlimit="10" stroke-linecap="round" stroke-linejoin="round"/>
<path d="M17.2357 16.2325C17.5787 17.4713 18.5391 18.4348 19.7739 18.7789" stroke="white" stroke-width="1.5" stroke-miterlimit="10" stroke-linecap="round" stroke-linejoin="round"/>
</svg>
