<svg width="22" height="22" viewBox="0 0 22 22" fill="none" xmlns="http://www.w3.org/2000/svg">
<path d="M22.0001 20.9L19.8001 18.7C20.1929 18.0714 20.4286 17.2857 20.4286 16.5C20.4286 14.3 18.7001 12.5714 16.5001 12.5714C14.3001 12.5714 12.5715 14.3 12.5715 16.5C12.5715 18.7 14.3001 20.4286 16.5001 20.4286C17.2858 20.4286 18.0715 20.1928 18.7001 19.8L20.9001 22L22.0001 20.9ZM14.1429 16.5C14.1429 15.1643 15.1644 14.1428 16.5001 14.1428C17.8358 14.1428 18.8572 15.1643 18.8572 16.5C18.8572 17.8357 17.8358 18.8571 16.5001 18.8571C15.1644 18.8571 14.1429 17.8357 14.1429 16.5ZM4.71436 11H12.5715V12.5714H4.71436V11ZM4.71436 6.28571H14.1429V7.85713H4.71436V6.28571Z" fill="white"/>
<path d="M9.42857 20.1929L5.34286 17.9929C2.98571 16.8143 1.57143 14.3786 1.57143 11.7857V1.57143H17.2857V10.2143H18.8571V1.57143C18.8571 0.707143 18.15 0 17.2857 0H1.57143C0.707143 0 0 0.707143 0 1.57143V11.7857C0 15.0071 1.72857 17.9143 4.55714 19.4071L9.42857 22V20.1929Z" fill="white"/>
</svg>
