<svg width="22" height="22" viewBox="0 0 22 22" fill="none" xmlns="http://www.w3.org/2000/svg">
<path d="M11 18.0714C10.0924 18.0722 9.19878 17.8481 8.399 17.419C7.59922 16.99 6.91823 16.3695 6.41692 15.6129L7.72592 14.7431C8.08426 15.2835 8.57076 15.7267 9.14204 16.0334C9.71333 16.34 10.3516 16.5005 11 16.5005C11.6484 16.5005 12.2867 16.34 12.8579 16.0334C13.4292 15.7267 13.9157 15.2835 14.2741 14.7431L15.5831 15.6129C15.0818 16.3695 14.4008 16.99 13.601 17.419C12.8012 17.8481 11.9076 18.0722 11 18.0714ZM14.1428 9.42855C13.8321 9.42855 13.5282 9.52071 13.2698 9.69338C13.0114 9.86605 12.81 10.1115 12.691 10.3986C12.5721 10.6858 12.541 11.0017 12.6016 11.3065C12.6622 11.6114 12.8119 11.8914 13.0317 12.1111C13.2515 12.3309 13.5315 12.4806 13.8363 12.5412C14.1411 12.6018 14.4571 12.5707 14.7442 12.4518C15.0314 12.3328 15.2768 12.1314 15.4494 11.873C15.6221 11.6146 15.7143 11.3108 15.7143 11C15.7164 10.793 15.6772 10.5877 15.5989 10.3961C15.5207 10.2045 15.405 10.0305 15.2587 9.88412C15.1124 9.73778 14.9383 9.62211 14.7467 9.54388C14.5551 9.46566 14.3498 9.42645 14.1428 9.42855ZM7.85714 9.42855C7.54634 9.42855 7.24252 9.52071 6.9841 9.69338C6.72568 9.86605 6.52426 10.1115 6.40532 10.3986C6.28639 10.6858 6.25527 11.0017 6.3159 11.3065C6.37653 11.6114 6.5262 11.8914 6.74597 12.1111C6.96574 12.3309 7.24574 12.4806 7.55056 12.5412C7.85539 12.6018 8.17135 12.5707 8.45849 12.4518C8.74564 12.3328 8.99106 12.1314 9.16373 11.873C9.3364 11.6146 9.42856 11.3108 9.42856 11C9.43066 10.793 9.39145 10.5877 9.31323 10.3961C9.235 10.2045 9.11933 10.0305 8.97299 9.88412C8.82664 9.73778 8.65258 9.62211 8.46097 9.54388C8.26937 9.46566 8.06408 9.42645 7.85714 9.42855Z" fill="white"/>
<path d="M22 11V9.42857H20.4286V6.28571C20.4275 5.4525 20.0961 4.6537 19.5069 4.06453C18.9177 3.47535 18.1189 3.1439 17.2857 3.14286H15.7143V0H14.1429V3.14286H7.85714V0H6.28571V3.14286H4.71429C3.88107 3.1439 3.08227 3.47535 2.4931 4.06453C1.90392 4.6537 1.57247 5.4525 1.57143 6.28571V9.42857H0V11H1.57143V14.9286H0V16.5H1.57143V18.8571C1.57247 19.6904 1.90392 20.4892 2.4931 21.0783C3.08227 21.6675 3.88107 21.999 4.71429 22H17.2857C18.1189 21.999 18.9177 21.6675 19.5069 21.0783C20.0961 20.4892 20.4275 19.6904 20.4286 18.8571V16.5H22V14.9286H20.4286V11H22ZM18.8571 18.8571C18.8567 19.2738 18.691 19.6732 18.3964 19.9679C18.1018 20.2625 17.7024 20.4282 17.2857 20.4286H4.71429C4.29764 20.4282 3.89819 20.2625 3.60358 19.9679C3.30897 19.6732 3.14327 19.2738 3.14286 18.8571V6.28571C3.14327 5.86907 3.30897 5.46962 3.60358 5.17501C3.89819 4.8804 4.29764 4.7147 4.71429 4.71429H17.2857C17.7024 4.7147 18.1018 4.8804 18.3964 5.17501C18.691 5.46962 18.8567 5.86907 18.8571 6.28571V18.8571Z" fill="white"/>
</svg>
