<svg width="36" height="36" viewBox="0 0 36 36" fill="none" xmlns="http://www.w3.org/2000/svg">
<rect width="36" height="36" rx="6" fill="#F89194"/>
<path d="M12.25 7V10.1429M20.65 7V10.1429M11.2 16.4286H17.5M11.2 21.6667H13.951M25.9 13.8095V19.1838C24.9305 18.4135 23.7268 17.996 22.4875 18C21.196 18 19.9885 18.4505 19.0435 19.2152C18.3958 19.7263 17.8729 20.3776 17.5146 21.1199C17.1562 21.8622 16.9717 22.6761 16.975 23.5C16.975 24.5267 17.269 25.5114 17.773 26.3286C18.1615 26.9676 18.6655 27.5229 19.264 27.9524H12.25C8.575 27.9524 7 25.8571 7 22.7143V13.8095C7 10.6667 8.575 8.57143 12.25 8.57143H20.65C24.325 8.57143 25.9 10.6667 25.9 13.8095Z" stroke="white" stroke-width="1.5" stroke-miterlimit="10" stroke-linecap="round" stroke-linejoin="round"/>
<path d="M28 23.5C28 24.5267 27.706 25.5114 27.202 26.3286C26.908 26.8314 26.5405 27.2714 26.11 27.6276C25.144 28.4867 23.884 29 22.4875 29C21.28 29 20.167 28.6124 19.264 27.9524C18.6655 27.5229 18.1615 26.9676 17.773 26.3286C17.269 25.5114 16.975 24.5267 16.975 23.5C16.975 21.7714 17.773 20.2105 19.0435 19.2152C19.9885 18.4505 21.196 18 22.4875 18C23.779 18 24.9655 18.44 25.9 19.1838C27.181 20.1895 28 21.7505 28 23.5V23.5Z" stroke="white" stroke-width="1.5" stroke-miterlimit="10" stroke-linecap="round" stroke-linejoin="round"/>
<path d="M22.4875 26.1191C22.4875 25.4245 22.7641 24.7583 23.2564 24.2671C23.7487 23.776 24.4164 23.5 25.1125 23.5C24.4164 23.5 23.7487 23.2241 23.2564 22.7329C22.7641 22.2418 22.4875 21.5756 22.4875 20.881C22.4875 21.5756 22.211 22.2418 21.7187 22.7329C21.2264 23.2241 20.5587 23.5 19.8625 23.5C20.5587 23.5 21.2264 23.776 21.7187 24.2671C22.211 24.7583 22.4875 25.4245 22.4875 26.1191Z" stroke="white" stroke-width="1.5" stroke-linecap="round" stroke-linejoin="round"/>
</svg>
