<svg width="24" height="24" viewBox="0 0 24 24" fill="none" xmlns="http://www.w3.org/2000/svg">
<path d="M23 12C23 5.928 18.072 1 12 1C5.928 1 1 5.928 1 12C1 18.072 5.928 23 12 23" stroke="white" stroke-width="1.5" stroke-linecap="round" stroke-linejoin="round"/>
<path d="M7.6 2.1001H8.7C6.55504 8.52582 6.55504 15.4744 8.7 21.9001H7.6M15.3 2.1001C16.367 5.3121 16.906 8.65609 16.906 12.0001" stroke="white" stroke-width="1.5" stroke-linecap="round" stroke-linejoin="round"/>
<path d="M2.09998 16.4V15.3C5.31197 16.367 8.65597 16.906 12 16.906M2.09998 8.70003C8.5257 6.55507 15.4742 6.55507 21.9 8.70003M23 23L21.9 21.9M18.82 22.34C19.7535 22.34 20.6489 21.9692 21.309 21.309C21.9691 20.6489 22.34 19.7536 22.34 18.82C22.34 17.8865 21.9691 16.9911 21.309 16.331C20.6489 15.6709 19.7535 15.3 18.82 15.3C17.8864 15.3 16.9911 15.6709 16.331 16.331C15.6708 16.9911 15.3 17.8865 15.3 18.82C15.3 19.7536 15.6708 20.6489 16.331 21.309C16.9911 21.9692 17.8864 22.34 18.82 22.34Z" stroke="white" stroke-width="1.5" stroke-linecap="round" stroke-linejoin="round"/>
</svg>
