<svg width="36" height="36" viewBox="0 0 36 36" fill="none" xmlns="http://www.w3.org/2000/svg">
<rect width="36" height="36" rx="6" fill="#777AD4"/>
<path d="M17.5 21.6903L18.2059 21.437L17.5 19.4698L16.7941 21.437L17.5 21.6903ZM17.5 21.6903L16.7941 21.4371L16.794 21.4373L16.7937 21.438L16.7928 21.4407L16.789 21.4513L16.7742 21.4925L16.7178 21.6503C16.669 21.787 16.5988 21.984 16.5131 22.2259C16.3416 22.7095 16.1077 23.3728 15.8582 24.091C15.3694 25.498 14.8112 27.1429 14.5516 28.0495C14.5207 28.1179 14.4702 28.1728 14.409 28.2077C14.342 28.2458 14.2653 28.2584 14.1916 28.2445C14.1177 28.2306 14.0486 28.1905 13.9975 28.1281C13.9482 28.0678 13.9192 27.9909 13.9171 27.9096C13.9612 26.7314 14.2722 25.1801 14.6148 23.4712C14.7023 23.0346 14.7919 22.5878 14.8796 22.1343C15.2967 19.9776 15.6739 17.6555 15.3938 15.9041L15.1389 14.3103M17.5 21.6903L18.206 21.4371L18.206 21.4373L18.2063 21.438L18.2072 21.4407L18.211 21.4513L18.2258 21.4925L18.2822 21.6503C18.331 21.787 18.4012 21.984 18.487 22.2259C18.6585 22.7095 18.8924 23.3728 19.1418 24.091C19.6306 25.498 20.1888 27.143 20.4485 28.0495C20.4793 28.1179 20.5299 28.1728 20.591 28.2077C20.658 28.2458 20.7347 28.2584 20.8084 28.2445C20.8823 28.2306 20.9514 28.1905 21.0025 28.1281C21.0518 28.0679 21.0808 27.9909 21.0829 27.9096C21.0388 26.7313 20.7278 25.1799 20.3852 23.4709C20.2977 23.0345 20.2081 22.5878 20.1204 22.1344C19.7033 19.9779 19.3262 17.6561 19.6062 15.9052L19.8612 14.3115L20.9149 15.5339C21.9247 16.7054 22.4167 18.0999 22.9315 19.5588C22.9694 19.6662 23.0074 19.7739 23.0457 19.8819L23.0458 19.882C23.066 19.939 23.0878 19.9712 23.1021 19.9881C23.1164 20.0049 23.1282 20.0128 23.1362 20.017C23.1529 20.0256 23.1771 20.0299 23.2046 20.0229C23.2327 20.0158 23.2426 20.0029 23.2436 20.0014L23.2436 20.0013C23.244 20.0007 23.2464 19.9972 23.2482 19.9867L15.1389 14.3103M21.1791 13.7283L21.1791 13.7282C20.8131 13.2728 20.2238 12.9924 19.5089 12.8351C18.8002 12.6791 18.0636 12.6644 17.5 12.6644C16.9364 12.6644 16.1998 12.6791 15.4912 12.8351C14.7762 12.9924 14.1869 13.2728 13.8209 13.7282L13.8209 13.7283C13.3869 14.2683 12.9713 15.2753 12.6046 16.4831C12.2469 17.6613 11.9658 18.9237 11.7578 19.8978C11.7472 19.9475 11.7499 19.9757 11.7518 19.9869C11.7536 19.9974 11.756 20.0009 11.7564 20.0015L11.7564 20.0015C11.7573 20.0029 11.767 20.0157 11.7948 20.0228C11.822 20.0296 11.8462 20.0254 11.863 20.0167C11.8711 20.0124 11.8831 20.0045 11.8975 19.9874C11.912 19.9703 11.934 19.9379 11.9543 19.8808L21.1791 13.7283ZM21.1791 13.7283C21.6131 14.2683 22.0287 15.2753 22.3954 16.4831M21.1791 13.7283L22.3954 16.4831M15.1389 14.3103L14.0851 15.5328M15.1389 14.3103L14.0851 15.5328M14.0851 15.5328C13.0753 16.7043 12.5833 18.0988 12.0685 19.5577M14.0851 15.5328L12.0685 19.5577M22.3954 16.4831C22.7531 17.6613 23.0342 18.9237 23.2423 19.8978L22.3954 16.4831ZM12.0685 19.5577C12.0307 19.665 11.9927 19.7726 11.9544 19.8805L12.0685 19.5577ZM18.8073 9.75877L19.5018 10.0419L18.8073 9.75877C18.7352 9.93558 18.6298 10.0955 18.4977 10.2297L19.0322 10.7559L18.4977 10.2297C18.3656 10.3639 18.2094 10.4697 18.0383 10.5417C17.8673 10.6137 17.6843 10.6507 17.4998 10.6507C17.1277 10.6508 16.7685 10.5009 16.5017 10.2302C16.2346 9.95916 16.0825 9.58904 16.0824 9.20073C16.0823 8.81241 16.2342 8.44221 16.5012 8.171C16.7678 7.90017 17.127 7.75009 17.4991 7.75C17.6836 7.74995 17.8666 7.78679 18.0377 7.8587C18.2088 7.93062 18.3651 8.03637 18.4972 8.17049C18.6294 8.30462 18.7348 8.4645 18.807 8.64127C18.8792 8.81807 18.9165 9.00796 18.9165 9.19999C18.9166 9.39203 18.8794 9.58194 18.8073 9.75877Z" stroke="white" stroke-width="1.5"/>
</svg>
