<svg width="36" height="36" viewBox="0 0 36 36" fill="none" xmlns="http://www.w3.org/2000/svg">
<rect width="36" height="36" rx="6" fill="#9C66FA"/>
<path d="M13.5556 18.22H21.3333M13.5556 22.62H18.4222M15.7778 11.4H20.2222C22.4445 11.4 22.4445 10.3 22.4445 9.2C22.4445 7 21.3333 7 20.2222 7H15.7778C14.6667 7 13.5556 7 13.5556 9.2C13.5556 11.4 14.6667 11.4 15.7778 11.4Z" stroke="white" stroke-width="1.5" stroke-miterlimit="10" stroke-linecap="round" stroke-linejoin="round"/>
<path d="M22.4444 9.22202C26.1444 9.42002 28 10.773 28 15.8V22.4C28 26.8 26.8889 29 21.3333 29H14.6667C9.11111 29 8 26.8 8 22.4V15.8C8 10.784 9.85556 9.42002 13.5556 9.22202" stroke="white" stroke-width="1.5" stroke-miterlimit="10" stroke-linecap="round" stroke-linejoin="round"/>
</svg>
