<svg width="24" height="24" viewBox="0 0 24 24" fill="none" xmlns="http://www.w3.org/2000/svg">
<path d="M23 18.963C23 19.359 22.9119 19.766 22.7246 20.162C22.5373 20.558 22.2949 20.932 21.9755 21.284C21.4357 21.878 20.8408 22.307 20.1688 22.582C19.5078 22.857 18.7917 23 18.0205 23C16.8968 23 15.696 22.736 14.4291 22.197C13.1622 21.658 11.8953 20.932 10.6395 20.019C9.35946 19.0841 8.15159 18.0545 7.02604 16.939C5.91201 15.8192 4.88454 14.6168 3.95243 13.342C3.04907 12.088 2.32198 10.834 1.79319 9.591C1.2644 8.337 1 7.138 1 5.994C1 5.246 1.1322 4.531 1.39659 3.871C1.66099 3.2 2.07962 2.584 2.6635 2.034C3.36855 1.341 4.13971 1 4.95493 1C5.2634 1 5.57186 1.066 5.84727 1.198C6.1337 1.33 6.38708 1.528 6.58538 1.814L9.14121 5.411C9.33951 5.686 9.48272 5.939 9.58187 6.181C9.68102 6.412 9.7361 6.643 9.7361 6.852C9.7361 7.116 9.65899 7.38 9.50476 7.633C9.36154 7.886 9.15223 8.15 8.88783 8.414L8.05058 9.283C7.92939 9.404 7.87431 9.547 7.87431 9.723C7.87431 9.811 7.88533 9.888 7.90736 9.976C7.94041 10.064 7.97346 10.13 7.99549 10.196C8.19379 10.559 8.5353 11.032 9.02003 11.604C9.51577 12.176 10.0446 12.759 10.6174 13.342C11.2123 13.925 11.7852 14.464 12.3691 14.959C12.9419 15.443 13.4156 15.773 13.7902 15.971C13.8453 15.993 13.9114 16.026 13.9885 16.059C14.0766 16.092 14.1647 16.103 14.2639 16.103C14.4512 16.103 14.5944 16.037 14.7156 15.916L15.5528 15.091C15.8282 14.816 16.0926 14.607 16.346 14.475C16.5994 14.321 16.8528 14.244 17.1282 14.244C17.3375 14.244 17.5578 14.288 17.8002 14.387C18.0426 14.486 18.2959 14.629 18.5714 14.816L22.2178 17.401C22.5043 17.599 22.7026 17.83 22.8237 18.105C22.9339 18.38 23 18.655 23 18.963V18.963Z" stroke="white" stroke-width="1.5" stroke-miterlimit="10"/>
<path d="M16.6435 7.37998H21.9314M16.6435 7.37998V2.09998V7.37998Z" stroke="white" stroke-width="1.5" stroke-linecap="round" stroke-linejoin="round"/>
</svg>
