<svg width="16" height="16" viewBox="0 0 16 16" fill="none" xmlns="http://www.w3.org/2000/svg">
<path d="M0.866081 15.9938C0.934671 16.0021 1.00401 16.0021 1.0726 15.9938L4.51461 15.1333C4.6673 15.097 4.80716 15.0196 4.91904 14.9095L15.4946 4.29956C15.8152 3.97711 15.9951 3.54092 15.9951 3.08625C15.9951 2.63159 15.8152 2.1954 15.4946 1.87295L14.135 0.504748C13.9752 0.344735 13.7854 0.217795 13.5765 0.131187C13.3675 0.0445786 13.1436 0 12.9174 0C12.6912 0 12.4673 0.0445786 12.2584 0.131187C12.0494 0.217795 11.8596 0.344735 11.6998 0.504748L1.12423 11.0803C1.01304 11.1927 0.932981 11.3321 0.891896 11.4848L0.0313937 14.9268C0.000465475 15.0381 -0.00772052 15.1545 0.007324 15.2691C0.0223685 15.3837 0.0603354 15.494 0.11896 15.5936C0.177584 15.6932 0.255665 15.78 0.348544 15.8487C0.441424 15.9175 0.547199 15.9668 0.65956 15.9938C0.728151 16.0021 0.79749 16.0021 0.866081 15.9938ZM12.9131 1.71806L14.2813 3.08625L12.9131 4.45445L11.5535 3.08625L12.9131 1.71806ZM2.50964 12.1301L10.3316 4.29956L11.6998 5.66776L3.86923 13.4983L2.05357 13.9458L2.50964 12.1301Z" fill="white" fill-opacity="0.5"/>
</svg>
