<svg width="22" height="22" viewBox="0 0 22 22" fill="none" xmlns="http://www.w3.org/2000/svg">
<path d="M21 11C21 5.48 16.52 1 11 1C5.48 1 1 5.48 1 11C1 16.52 5.48 21 11 21" stroke="white" stroke-opacity="0.6" stroke-width="1.5" stroke-linecap="round" stroke-linejoin="round"/>
<path d="M7.00003 2.00003H8.00003C6.05006 7.84159 6.05006 14.1585 8.00003 20H7.00003M14 2.00003C14.97 4.92003 15.46 7.96003 15.46 11" stroke="white" stroke-opacity="0.6" stroke-width="1.5" stroke-linecap="round" stroke-linejoin="round"/>
<path d="M1.99998 15V14C4.91998 14.97 7.95997 15.46 11 15.46M1.99998 7.99998C7.84154 6.05001 14.1584 6.05001 20 7.99998M21 21L20 20M17.2 20.4C18.0487 20.4 18.8626 20.0628 19.4627 19.4627C20.0628 18.8626 20.4 18.0487 20.4 17.2C20.4 16.3513 20.0628 15.5374 19.4627 14.9372C18.8626 14.3371 18.0487 14 17.2 14C16.3513 14 15.5373 14.3371 14.9372 14.9372C14.3371 15.5374 14 16.3513 14 17.2C14 18.0487 14.3371 18.8626 14.9372 19.4627C15.5373 20.0628 16.3513 20.4 17.2 20.4Z" stroke="white" stroke-opacity="0.6" stroke-width="1.5" stroke-linecap="round" stroke-linejoin="round"/>
</svg>
