<svg width="16" height="18" viewBox="0 0 16 18" fill="none" xmlns="http://www.w3.org/2000/svg">
<path d="M4.40027 5H12.0003V3.4C12.0003 1.8 11.4003 1 9.60027 1H6.80027C5.00027 1 4.40027 1.8 4.40027 3.4V5ZM11.4003 11.4V14.6C11.4003 16.2 10.6003 17 9.00027 17H7.40027C5.80027 17 5.00027 16.2 5.00027 14.6V11.4H11.4003Z" stroke="white" stroke-miterlimit="10" stroke-linecap="round" stroke-linejoin="round"/>
<path d="M12.2 11.4H4.2M4.2 8.2H6.6M15.4 7.4V11.4C15.4 13 14.6 13.8 13 13.8H11.4V11.4H5V13.8H3.4C1.8 13.8 1 13 1 11.4V7.4C1 5.8 1.8 5 3.4 5H13C14.6 5 15.4 5.8 15.4 7.4Z" stroke="white" stroke-miterlimit="10" stroke-linecap="round" stroke-linejoin="round"/>
</svg>
