<svg width="22" height="22" viewBox="0 0 22 22" fill="none" xmlns="http://www.w3.org/2000/svg">
<path d="M13.5 1.3C12.5 1.3 11.6 2.1 11.6 3.2V7.8C11.6 8.8 12.4 9.7 13.5 9.7C14.5 9.7 15.4 8.9 15.4 7.8V3.1C15.4 2.1 14.6 1.3 13.5 1.3V1.3ZM17.6 9.6H19.2C20.1 9.6 20.8 8.9 20.8 8C20.8 7.1 20.1 6.4 19.2 6.4C18.3 6.4 17.6 7.1 17.6 8V9.6ZM1 8.2C1 9.2 1.8 10.1 2.9 10.1H7.5C8.5 10.1 9.4 9.3 9.4 8.2C9.4 7.2 8.6 6.3 7.5 6.3H2.9C1.8 6.4 1 7.2 1 8.2ZM9.4 4.1V2.6C9.4 1.7 8.7 1 7.8 1C6.9 1 6.2 1.7 6.2 2.6C6.2 3.5 6.9 4.2 7.8 4.2H9.4V4.1V4.1ZM8.4 20.8C9.4 20.8 10.3 20 10.3 18.9V14.3C10.3 13.3 9.5 12.4 8.4 12.4C7.4 12.4 6.5 13.2 6.5 14.3V18.9C6.6 19.9 7.4 20.8 8.4 20.8ZM4.4 12.4H2.8C1.9 12.4 1.2 13.1 1.2 14C1.2 14.9 1.9 15.6 2.8 15.6C3.7 15.6 4.4 14.9 4.4 14V12.4V12.4ZM21 13.8C21 12.8 20.2 11.9 19.1 11.9H14.5C13.5 11.9 12.6 12.7 12.6 13.8C12.6 14.8 13.4 15.7 14.5 15.7H19.1C20.1 15.7 21 14.8 21 13.8V13.8ZM12.6 17.8V19.4C12.6 20.3 13.3 21 14.2 21C15.1 21 15.8 20.3 15.8 19.4C15.8 18.5 15.1 17.8 14.2 17.8H12.6V17.8Z" stroke="white" stroke-opacity="0.6" stroke-miterlimit="10" stroke-linecap="round" stroke-linejoin="round"/>
</svg>
